<?xml version="1.0" encoding="UTF-8"?>
<svg xmlns="http://www.w3.org/2000/svg" style="display:none">
  <symbol id="icon-home" viewBox="0 0 24 24" fill="none" stroke="currentColor" stroke-width="2" stroke-linecap="round" stroke-linejoin="round">
    <path d="M3 10.5L12 3l9 7.5"></path>
    <path d="M5 10.5V21h14V10.5"></path>
    <path d="M9 21v-6h6v6"></path>
  </symbol>

  <symbol id="icon-sim" viewBox="0 0 24 24" fill="none" stroke="currentColor" stroke-width="2" stroke-linecap="round" stroke-linejoin="round">
    <circle cx="12" cy="12" r="9"></circle>
    <circle cx="12" cy="12" r="3"></circle>
  </symbol>

  <symbol id="icon-lessons" viewBox="0 0 24 24" fill="none" stroke="currentColor" stroke-width="2" stroke-linecap="round" stroke-linejoin="round">
    <path d="M4 19V5l8-3 8 3v14l-8 3-8-3z"></path>
  </symbol>

  <symbol id="icon-calc" viewBox="0 0 24 24" fill="none" stroke="currentColor" stroke-width="2" stroke-linecap="round" stroke-linejoin="round">
    <rect x="3" y="4" width="18" height="16" rx="2"></rect>
    <path d="M7 8h10"></path>
    <path d="M7 12h10"></path>
    <path d="M7 16h3"></path>
    <path d="M14 16h3"></path>
  </symbol>

  <symbol id="icon-profile" viewBox="0 0 24 24" fill="none" stroke="currentColor" stroke-width="2" stroke-linecap="round" stroke-linejoin="round">
    <circle cx="12" cy="8" r="4"></circle>
    <path d="M4 20c0-4 4-6 8-6s8 2 8 6"></path>
  </symbol>

  <symbol id="icon-bell" viewBox="0 0 24 24" fill="none" stroke="currentColor" stroke-width="2" stroke-linecap="round" stroke-linejoin="round">
    <path d="M18 8a6 6 0 00-12 0c0 7-3 9-3 9h18s-3-2-3-9"></path>
    <path d="M13.73 21a2 2 0 01-3.46 0"></path>
  </symbol>

  <symbol id="icon-share" viewBox="0 0 24 24" fill="none" stroke="currentColor" stroke-width="2" stroke-linecap="round" stroke-linejoin="round">
    <circle cx="18" cy="5" r="3"></circle>
    <circle cx="6" cy="12" r="3"></circle>
    <path d="M8.59 13.51L15.42 8.49"></path>
  </symbol>

  <symbol id="icon-refresh" viewBox="0 0 24 24" fill="none" stroke="currentColor" stroke-width="2" stroke-linecap="round" stroke-linejoin="round">
    <polyline points="23 4 23 10 17 10"></polyline>
    <polyline points="1 20 1 14 7 14"></polyline>
    <path d="M3.51 9a9 9 0 0114.13-3.36L23 10"></path>
    <path d="M20.49 15a9 9 0 01-14.13 3.36L1 14"></path>
  </symbol>
</svg>
